<svg xmlns="http://www.w3.org/2000/svg" width="388.666" height="79"><path fill="#FFF" d="M-8.334 114h400v100h-400z"/><path d="M116.666-354v-159h170.667zm-418.128-121.88l-717-716.999 185.261-185.26 717 717zM515.666-241h512V15h-512zm485 1025h512v512h-512zM-607.861-139.898h20.738l11.102 15.492 9.516-15.492h20.983l-21.228 27.326L-541.497-80h-20.983l-15.371-20.861L-591.637-80h-21.227l25.619-32.572-20.616-27.326z"/><path d="M-528.136-80h-21.228l25.619-32.572-20.617-27.326h20.739l11.102 15.492 9.515-15.492h20.984m18.252 5.367h.244c3.294-4.758 9.149-7.32 14.64-7.32 7.441 0 13.297 3.051 17.201 9.395 3.659-5.855 10.491-9.395 17.444-9.395 15.25 0 19.031 11.469 19.031 24.521V-80h-17.079v-31.475c0-5.855.366-16.713-8.052-16.713-9.271 0-9.149 12.565-9.149 18.787V-80h-17.079v-30.377c0-5.855.732-17.811-8.174-17.811-9.516 0-9.027 12.443-9.027 18.787V-80h-17.079v-59.898h17.079v5.367zM-332.928-80h-16.835v-5.49h-.244c-3.66 4.758-10.004 7.441-16.226 7.441-17.567 0-27.57-15.98-27.57-32.205 0-15.859 10.125-31.598 27.326-31.598 6.222 0 12.565 2.685 16.714 7.564v-5.611h16.835V-80zm-15.127-30.011c0-8.052-5.49-16.713-14.273-16.713-8.784 0-14.151 8.661-14.151 16.713s5.367 16.835 14.151 16.835c8.783 0 14.273-8.783 14.273-16.835zM-308.454-80h-17.079v-45.504h-5.855v-14.395h5.855v-20.251h17.079v20.251h10.491v14.395h-10.491V-80zm30.157-85.03c0 5.612-4.515 10.125-10.126 10.125s-10.125-4.514-10.125-10.125c0-5.49 4.514-10.125 10.125-10.125s10.126 4.635 10.126 10.125zM-279.883-80h-17.079v-59.898h17.079V-80zm46.236-41.6c-3.66-3.66-7.319-5.855-12.565-5.855-9.638 0-15.127 9.027-15.127 17.811 0 9.394 5.978 17.201 15.737 17.201 4.636 0 8.905-2.318 11.955-5.734v16.47c-4.636 2.562-9.516 3.659-14.762 3.659-17.688 0-30.254-14.517-30.254-31.718 0-17.812 13.053-32.085 31.108-32.085 4.758 0 9.76 1.221 13.907 3.782v16.469zm347.077 12.998l14.178 22.565-8.898.029-10.061-15.063-9.829 15.064h-9.363l14.41-22.595-13.547-21.006h8.898l9.43 14.416 9.23-14.416h9.33l-13.778 21.006zm27.523-20.918h7.869l9.23 19.3 9.197-19.3h7.869l-12.816 27.038v16.476h-8.533v-16.476l-12.816-27.038zm73.255.088h6.209v43.483h-7.471v-21.035l-8.4 19.858-8.434-20.153v21.271h-7.438v-43.425h6.209l9.662 23.301 9.663-23.3zm38.037-.323l13.348 43.896h-7.604l-2.092-6.943h-11.82l-2.092 6.943h-7.604l13.348-43.896h4.516zm-6.043 29.98h7.57l-3.752-14.034-3.818 14.034zm27.337-29.774h31.875v6.826h-12.219v36.481h-7.438v-36.481h-12.219v-6.826zm45.41 0h7.438v43.542h-7.438v-43.542zm47.928.206c3.055 0 6.087.52 9.098 1.559v7.326h-.432c-2.701-1.431-5.667-2.147-8.898-2.147-6.464 0-11.533 2.688-15.207 8.061-1.24 2.314-1.859 4.697-1.859 7.149 0 5.218 2.7 9.483 8.102 12.798 2.811 1.471 5.877 2.207 9.197 2.207 2.855 0 5.888-.755 9.098-2.266v7.354c-2.922 1.021-6.076 1.53-9.463 1.53-7.991 0-14.754-3.05-20.287-9.149-3.077-3.884-4.615-8.071-4.615-12.563 0-7.668 3.918-13.856 11.754-18.564 4.093-2.197 8.598-3.295 13.512-3.295z"/><path fill="#666" d="M4.365-66l43.301-75 18.719 32.422z"/><path d="M5.55-125.5l60.835 16.922L47.666-141zm1073.339 714.164l238.054-412.328 102.911 178.246z"/><path d="M1085.4 261.551l334.454 93.031-102.911-178.246z"/><path fill="#FFF" d="M1132.926 1202.664l184.941-320.329 79.948 138.476z"/><path fill="#FFF" d="M1137.985 948.537l259.83 72.274-79.948-138.476zM1550.666 784h512v512h-512z"/><path d="M1682.926 1202.664l184.941-320.329 79.948 138.476z"/><path d="M1687.985 948.537l259.83 72.274-79.948-138.476z"/><path d="M113.43 36.398l14.178 22.565-8.898.029-10.062-15.062-9.828 15.063h-9.363l14.41-22.595L90.32 15.392h8.898l9.43 14.416 9.23-14.416h9.33L113.43 36.398zm27.523-20.918h7.869l9.23 19.3 9.197-19.3h7.869l-12.816 27.037v16.476h-8.533V42.518L140.953 15.48zm73.256.088h6.209v43.483h-7.471V38.017l-8.4 19.858-8.434-20.153v21.271h-7.438V15.568h6.209l9.662 23.301 9.663-23.301zm38.036-.324l13.348 43.896h-7.604l-2.092-6.943h-11.82l-2.092 6.943h-7.604l13.348-43.896h4.516zm-6.043 29.981h7.57l-3.752-14.034-3.818 14.034zm27.337-29.774h31.875v6.825h-12.219v36.481h-7.438V22.276h-12.219v-6.825zm45.411 0h7.438v43.542h-7.438V15.451zm47.928.205c3.055 0 6.087.52 9.098 1.56v7.325h-.432c-2.701-1.431-5.667-2.146-8.898-2.146-6.464 0-11.533 2.688-15.207 8.061-1.24 2.314-1.859 4.697-1.859 7.149 0 5.218 2.7 9.483 8.102 12.798 2.811 1.471 5.877 2.207 9.197 2.207 2.855 0 5.888-.755 9.098-2.266v7.354c-2.922 1.021-6.076 1.53-9.463 1.53-7.991 0-14.754-3.05-20.287-9.149-3.077-3.884-4.615-8.071-4.615-12.563 0-7.668 3.918-13.856 11.754-18.564 4.093-2.196 8.598-3.296 13.512-3.296zM4.365 79L47.666 4l18.719 32.422z" fill="#FFF"/><path fill="#FFF" d="M5.55 19.5l60.835 16.922L47.666 4z"/><path fill="#666" d="M-540.119 558.16l221.308-383.32 95.672 165.703z"/><path d="M-534.064 254.059l310.925 86.484-95.672-165.703z"/><path d="M695.43-115.602l14.178 22.565-8.898.029-10.061-15.063-9.828 15.063h-9.363l14.41-22.595-13.547-21.007h8.898l9.43 14.416 9.23-14.416h9.33l-13.779 21.008zm27.523-20.918h7.869l9.23 19.3 9.197-19.3h7.869l-12.816 27.038v16.476h-8.533v-16.476l-12.816-27.038zm73.255.088h6.209v43.483h-7.471v-21.035l-8.4 19.858-8.434-20.153v21.271h-7.438v-43.425h6.209l9.662 23.301 9.663-23.3zm38.037-.323l13.348 43.896h-7.604l-2.092-6.943h-11.82l-2.092 6.943h-7.604l13.348-43.896h4.516zm-6.043 29.98h7.57l-3.752-14.034-3.818 14.034zm27.337-29.774h31.875v6.826h-12.219v36.481h-7.438v-36.481h-12.219v-6.826zm45.41 0h7.438v43.542h-7.438v-43.542zm47.928.206c3.055 0 6.087.52 9.098 1.559v7.326h-.432c-2.701-1.431-5.667-2.147-8.898-2.147-6.464 0-11.533 2.688-15.207 8.061-1.24 2.314-1.859 4.697-1.859 7.149 0 5.218 2.7 9.483 8.102 12.798 2.811 1.471 5.877 2.207 9.197 2.207 2.855 0 5.888-.755 9.098-2.266v7.354c-2.922 1.021-6.076 1.53-9.463 1.53-7.991 0-14.754-3.05-20.287-9.149-3.077-3.884-4.615-8.071-4.615-12.563 0-7.668 3.918-13.856 11.754-18.564 4.093-2.197 8.598-3.295 13.512-3.295zM586.365-70l43.301-75 18.719 32.422z" fill="#FFF"/><path fill="#FFF" d="M587.55-129.5l60.835 16.922L629.666-145zM146.293-428.189l33.846-58.622 14.631 25.342z"/><path fill="#FFF" d="M147.219-474.696l47.551 13.227-14.631-25.342zM585.365 266l43.301-75 18.719 32.422z"/><path fill="#FFF" d="M586.55 206.5l60.835 16.922L628.666 191z"/></svg>